
<svg width="13px" height="11px" viewBox="0 0 13 11" version="1.1" xmlns="http://www.w3.org/2000/svg" xmlns:xlink="http://www.w3.org/1999/xlink">
    <!-- Generator: Sketch 48.1 (47250) - http://www.bohemiancoding.com/sketch -->
    <desc>Created with Sketch.</desc>
    <defs>
        <linearGradient x1="50%" y1="0%" x2="50%" y2="100%" id="linearGradient-1">
            <stop stop-color="#787878" offset="0%"></stop>
            <stop stop-color="#434343" offset="100%"></stop>
        </linearGradient>
    </defs>
    <g id="Page-1" stroke="none" stroke-width="1" fill="none" fill-rule="evenodd">
        <path d="M6.51903694,1 C5.28605915,1 4.02787996,1 2.74449936,1 C1,1 1,1 1,2.60332957 C1,3.67221594 1,4.67124428 1,5.60041458 C1.05315563,6.54888343 1.63465542,7.02311786 2.74449936,7.02311786 C2.74449936,7.02311786 3.22687491,7.02311786 4.01141753,7.02311786 C4.17511575,7.42781003 4.76475676,8.24295163 5.78034054,9.46854266 L7.52521558,7.12030936 C8.37857207,7.12030936 9.20321652,7.12030936 9.99914892,7.12030936 C11.626391,7.12030936 11.626391,6.34818316 11.626391,5.60041458 C11.626391,5.10190219 11.626391,4.07723371 11.626391,2.52640913 C11.626391,1.50880304 11.0468834,1 9.88786824,1 C8.72885304,1 7.60590927,1 6.51903694,1 Z" id="Path-68" stroke="url(#linearGradient-1)"></path>
    </g>
</svg>