
<svg width="45px" height="39px" viewBox="0 0 45 39" version="1.1" xmlns="http://www.w3.org/2000/svg" xmlns:xlink="http://www.w3.org/1999/xlink">
    <!-- Generator: Sketch 48.1 (47250) - http://www.bohemiancoding.com/sketch -->
    <desc>Created with Sketch.</desc>
    <defs>
        <linearGradient x1="50%" y1="0%" x2="50%" y2="100%" id="linearGradient-1">
            <stop stop-color="#797979" offset="0%"></stop>
            <stop stop-color="#575757" offset="100%"></stop>
        </linearGradient>
        <linearGradient x1="50%" y1="0%" x2="50%" y2="100%" id="linearGradient-2">
            <stop stop-color="#777777" offset="0%"></stop>
            <stop stop-color="#575757" offset="100%"></stop>
        </linearGradient>
        <linearGradient x1="50%" y1="0%" x2="50%" y2="100%" id="linearGradient-3">
            <stop stop-color="#838383" offset="0%"></stop>
            <stop stop-color="#5A5A5A" offset="100%"></stop>
        </linearGradient>
    </defs>
    <g id="Page-1" stroke="none" stroke-width="1" fill="none" fill-rule="evenodd">
        <g id="Group-20">
            <g id="Salesforce_Logo_RGB_8_13_14">
                <path d="M9.90135979,1.84724409 C10.6710768,1.0351706 11.7381845,0.526509186 12.9190004,0.526509186 C14.4934215,0.526509186 15.8579199,1.41889764 16.5926498,2.74855643 C17.231165,2.46299213 17.9309078,2.3023622 18.6656376,2.3023622 C21.4995957,2.3023622 23.8,4.6671916 23.8,7.58530184 C23.8,10.5034121 21.4995957,12.8682415 18.6656376,12.8682415 C18.3157663,12.8682415 17.9833885,12.8325459 17.6510107,12.7611549 C17.0124954,13.9301837 15.7791988,14.7244094 14.3797133,14.7244094 C13.7936788,14.7244094 13.2338846,14.5816273 12.7353179,14.3406824 C12.0793091,15.9023622 10.5661154,17 8.79926498,17 C6.9536935,17 5.38801911,15.8131234 4.784491,14.144357 C4.52208747,14.1979003 4.25093716,14.2335958 3.97104006,14.2335958 C1.77559721,14.2335958 0,12.3952756 0,10.1375328 C0,8.62047244 0.795957369,7.29973753 1.98552003,6.58582677 C1.74061007,6.01469816 1.60940831,5.38110236 1.60940831,4.71181102 C1.60940831,2.10603675 3.68239618,0 6.23645718,0 C7.72341051,0 9.05292172,0.722834646 9.90135979,1.84724409 Z" id="Shape" fill="url(#linearGradient-1)" fill-rule="nonzero"></path>
                <g id="Group" transform="translate(3.400000, 5.950000)" fill="#FFFFFF">
                    <path d="M0.0346601942,2.9484375 C0.0173300971,2.98385417 0.0433252427,2.99270833 0.0433252427,3.0015625 C0.0866504854,3.03697917 0.129975728,3.0546875 0.181966019,3.08125 C0.424587379,3.2140625 0.649878641,3.24947917 0.883834951,3.24947917 C1.36907767,3.24947917 1.67235437,2.98385417 1.67235437,2.56770833 L1.67235437,2.55885417 C1.67235437,2.16927083 1.33441748,2.02760417 1.01381068,1.92135417 L0.970485437,1.90364583 C0.727864078,1.82395833 0.519902913,1.753125 0.519902913,1.59375 L0.519902913,1.58489583 C0.519902913,1.44322917 0.641213592,1.34583333 0.83184466,1.34583333 C1.03980583,1.34583333 1.29109223,1.41666667 1.44706311,1.50520833 C1.44706311,1.50520833 1.49038835,1.53177083 1.50771845,1.4875 C1.5163835,1.4609375 1.59436893,1.23958333 1.60303398,1.21302083 C1.61169903,1.18645833 1.59436893,1.16875 1.57703883,1.15989583 C1.39507282,1.04479167 1.14378641,0.973958333 0.883834951,0.973958333 L0.83184466,0.973958333 C0.389927184,0.973958333 0.0779854369,1.2484375 0.0779854369,1.63802083 L0.0779854369,1.646875 C0.0779854369,2.06302083 0.41592233,2.19583333 0.736529126,2.284375 L0.788519417,2.30208333 C1.02247573,2.37291667 1.22177184,2.43489583 1.22177184,2.603125 L1.22177184,2.61197917 C1.22177184,2.7625 1.09179612,2.87760417 0.883834951,2.87760417 C0.805849515,2.87760417 0.545898058,2.87760417 0.259951456,2.69166667 C0.225291262,2.67395833 0.207961165,2.65625 0.181966019,2.63854167 C0.164635922,2.6296875 0.129975728,2.61197917 0.12131068,2.66510417 L0.0346601942,2.9484375 Z" id="Shape" fill-rule="nonzero"></path>
                    <path d="M7.1226699,2.9484375 C7.10533981,2.98385417 7.13133495,2.99270833 7.13133495,3.0015625 C7.17466019,3.03697917 7.21798544,3.0546875 7.26997573,3.08125 C7.51259709,3.2140625 7.73788835,3.24947917 7.97184466,3.24947917 C8.45708738,3.24947917 8.76036408,2.98385417 8.76036408,2.56770833 L8.76036408,2.55885417 C8.76036408,2.16927083 8.42242718,2.02760417 8.10182039,1.92135417 L8.05849515,1.90364583 C7.81587379,1.82395833 7.60791262,1.753125 7.60791262,1.59375 L7.60791262,1.58489583 C7.60791262,1.44322917 7.7292233,1.34583333 7.91985437,1.34583333 C8.12781553,1.34583333 8.37910194,1.41666667 8.53507282,1.50520833 C8.53507282,1.50520833 8.57839806,1.53177083 8.59572816,1.4875 C8.6043932,1.4609375 8.68237864,1.23958333 8.69104369,1.21302083 C8.69970874,1.18645833 8.68237864,1.16875 8.66504854,1.15989583 C8.48308252,1.04479167 8.23179612,0.973958333 7.97184466,0.973958333 L7.91985437,0.973958333 C7.47793689,0.973958333 7.16599515,1.2484375 7.16599515,1.63802083 L7.16599515,1.646875 C7.16599515,2.06302083 7.50393204,2.19583333 7.82453883,2.284375 L7.87652913,2.30208333 C8.11048544,2.37291667 8.30978155,2.43489583 8.30978155,2.603125 L8.30978155,2.61197917 C8.30978155,2.7625 8.17980583,2.87760417 7.97184466,2.87760417 C7.89385922,2.87760417 7.63390777,2.87760417 7.34796117,2.69166667 C7.31330097,2.67395833 7.29597087,2.65625 7.26997573,2.63854167 C7.26131068,2.6296875 7.21798544,2.62083333 7.20932039,2.66510417 L7.1226699,2.9484375 Z" id="Shape" fill-rule="nonzero"></path>
                    <path d="M12.3563592,1.6734375 C12.313034,1.540625 12.2523786,1.41666667 12.1743932,1.31927083 C12.0877427,1.221875 11.9837621,1.13333333 11.8624515,1.08020833 C11.7411408,1.01822917 11.593835,0.991666667 11.429199,0.991666667 C11.2645631,0.991666667 11.1172573,1.01822917 10.9959466,1.08020833 C10.8746359,1.1421875 10.7706553,1.221875 10.6840049,1.31927083 C10.6060194,1.41666667 10.536699,1.540625 10.5020388,1.6734375 C10.4587136,1.80625 10.4413835,1.95677083 10.4413835,2.11614583 C10.4413835,2.27552083 10.4587136,2.42604167 10.5020388,2.55885417 C10.5453641,2.69166667 10.6060194,2.815625 10.6840049,2.91302083 C10.7706553,3.01041667 10.8746359,3.09895833 10.9959466,3.15208333 C11.1172573,3.20520833 11.2645631,3.240625 11.429199,3.240625 C11.593835,3.240625 11.7411408,3.2140625 11.8624515,3.15208333 C11.9837621,3.09895833 12.0877427,3.01041667 12.1743932,2.91302083 C12.2523786,2.815625 12.321699,2.69166667 12.3563592,2.55885417 C12.3996845,2.42604167 12.4170146,2.27552083 12.4170146,2.11614583 C12.4170146,1.95677083 12.3996845,1.80625 12.3563592,1.6734375 M11.957767,2.11614583 C11.957767,2.35520833 11.9144417,2.54114583 11.8277913,2.67395833 C11.7411408,2.80677083 11.611165,2.86875 11.4378641,2.86875 C11.2558981,2.86875 11.1345874,2.80677083 11.0479369,2.67395833 C10.9612864,2.54114583 10.9179612,2.35520833 10.9179612,2.11614583 C10.9179612,1.87708333 10.9612864,1.69114583 11.0479369,1.55833333 C11.1345874,1.42552083 11.2558981,1.36354167 11.4378641,1.36354167 C11.6198301,1.36354167 11.7498058,1.42552083 11.8277913,1.55833333 C11.9144417,1.69114583 11.957767,1.87708333 11.957767,2.11614583" id="Shape" fill-rule="nonzero"></path>
                    <path d="M15.6750728,2.80677083 C15.6577427,2.7625 15.6230825,2.78020833 15.6230825,2.78020833 C15.5624272,2.80677083 15.5017718,2.82447917 15.4324515,2.83333333 C15.3631311,2.8421875 15.2938107,2.85104167 15.2071602,2.85104167 C15.0078641,2.85104167 14.8605583,2.7890625 14.7479126,2.67395833 C14.635267,2.55885417 14.5746117,2.3640625 14.5746117,2.10729167 C14.5746117,1.87708333 14.6266019,1.7 14.7305825,1.5671875 C14.8258981,1.434375 14.9818689,1.36354167 15.181165,1.36354167 C15.345801,1.36354167 15.4757767,1.38125 15.6057524,1.42552083 C15.6057524,1.42552083 15.6404126,1.44322917 15.6490777,1.39895833 C15.6837379,1.3015625 15.709733,1.23072917 15.7443932,1.115625 C15.7530583,1.08020833 15.7270631,1.07135417 15.7183981,1.07135417 C15.6664078,1.05364583 15.5450971,1.01822917 15.4497816,1.00052083 C15.3631311,0.9828125 15.2591505,0.9828125 15.1465049,0.9828125 C14.9732039,0.9828125 14.8258981,1.009375 14.6959223,1.07135417 C14.5659466,1.13333333 14.453301,1.21302083 14.3666505,1.31041667 C14.28,1.4078125 14.2106796,1.53177083 14.1673544,1.66458333 C14.1240291,1.79739583 14.098034,1.94791667 14.098034,2.10729167 C14.098034,2.45260417 14.1846845,2.72708333 14.3666505,2.93072917 C14.5486165,3.134375 14.817233,3.240625 15.163835,3.240625 C15.3717961,3.240625 15.5797573,3.19635417 15.7357282,3.134375 C15.7357282,3.134375 15.7617233,3.11666667 15.7530583,3.08125 L15.6750728,2.80677083 Z" id="Shape"></path>
                    <path d="M17.7373544,1.59375 C17.7026942,1.4609375 17.6160437,1.328125 17.5640534,1.26614583 C17.4774029,1.16875 17.3907524,1.09791667 17.3041019,1.0625 C17.1914563,1.009375 17.0614806,0.9828125 16.9141748,0.9828125 C16.7408738,0.9828125 16.5849029,1.009375 16.4635922,1.07135417 C16.3336165,1.13333333 16.2296359,1.21302083 16.1516505,1.31927083 C16.065,1.42552083 16.0043447,1.540625 15.9696845,1.68229167 C15.9263592,1.82395833 15.9090291,1.965625 15.9090291,2.125 C15.9090291,2.284375 15.9263592,2.43489583 15.9696845,2.56770833 C16.0130097,2.70052083 16.073665,2.82447917 16.1689806,2.921875 C16.2556311,3.01927083 16.3769417,3.09895833 16.5155825,3.15208333 C16.6542233,3.20520833 16.8188592,3.23177083 17.0094903,3.23177083 C17.4080825,3.23177083 17.6160437,3.14322917 17.6940291,3.09010417 C17.7113592,3.08125 17.7200243,3.06354167 17.7026942,3.01927083 L17.6160437,2.7625 C17.5987136,2.72708333 17.5640534,2.7359375 17.5640534,2.7359375 C17.4687379,2.77135417 17.3300971,2.8421875 17.0008252,2.8421875 C16.7928641,2.8421875 16.6282282,2.78020833 16.5329126,2.67395833 C16.428932,2.56770833 16.3856068,2.4171875 16.3769417,2.21354167 L17.7460194,2.21354167 C17.7460194,2.21354167 17.7806796,2.21354167 17.7893447,2.178125 C17.7806796,2.178125 17.8240049,1.9125 17.7373544,1.59375 Z M16.3769417,1.8859375 C16.3942718,1.753125 16.428932,1.646875 16.4895874,1.55833333 C16.5762379,1.42552083 16.6975485,1.3546875 16.8795146,1.3546875 C17.0614806,1.3546875 17.1741262,1.42552083 17.2607767,1.55833333 C17.321432,1.646875 17.3387621,1.76197917 17.3474272,1.8859375 L16.3769417,1.8859375 Z" id="Shape"></path>
                    <path d="M6.79339806,1.59375 C6.75873786,1.4609375 6.67208738,1.328125 6.62009709,1.26614583 C6.5334466,1.16875 6.44679612,1.09791667 6.36014563,1.0625 C6.2475,1.009375 6.11752427,0.9828125 5.97021845,0.9828125 C5.79691748,0.9828125 5.6409466,1.009375 5.51963592,1.07135417 C5.38966019,1.13333333 5.28567961,1.21302083 5.20769417,1.31927083 C5.12104369,1.42552083 5.06038835,1.540625 5.02572816,1.68229167 C4.98240291,1.82395833 4.96507282,1.965625 4.96507282,2.125 C4.96507282,2.284375 4.98240291,2.43489583 5.02572816,2.56770833 C5.0690534,2.70052083 5.12970874,2.82447917 5.22502427,2.921875 C5.31167476,3.01927083 5.43298544,3.09895833 5.57162621,3.15208333 C5.71026699,3.20520833 5.87490291,3.23177083 6.06553398,3.23177083 C6.46412621,3.23177083 6.67208738,3.14322917 6.75007282,3.09010417 C6.76740291,3.08125 6.77606796,3.06354167 6.75873786,3.01927083 L6.67208738,2.7625 C6.65475728,2.72708333 6.62009709,2.7359375 6.62009709,2.7359375 C6.52478155,2.77135417 6.38614078,2.8421875 6.05686893,2.8421875 C5.84890777,2.8421875 5.68427184,2.78020833 5.58895631,2.67395833 C5.48497573,2.56770833 5.44165049,2.4171875 5.43298544,2.21354167 L6.80206311,2.21354167 C6.80206311,2.21354167 6.8367233,2.21354167 6.84538835,2.178125 C6.8367233,2.178125 6.88004854,1.9125 6.79339806,1.59375 Z M5.43298544,1.8859375 C5.45031553,1.753125 5.48497573,1.646875 5.54563107,1.55833333 C5.63228155,1.42552083 5.75359223,1.3546875 5.93555825,1.3546875 C6.11752427,1.3546875 6.2301699,1.42552083 6.31682039,1.55833333 C6.36881068,1.646875 6.39480583,1.76197917 6.40347087,1.8859375 L5.43298544,1.8859375 Z" id="Shape"></path>
                    <path d="M3.02410194,1.81510417 C2.97211165,1.81510417 2.89412621,1.80625 2.80747573,1.80625 C2.68616505,1.80625 2.57351942,1.82395833 2.46953883,1.85052083 C2.36555825,1.87708333 2.27024272,1.92135417 2.18359223,1.98333333 C2.09694175,2.0453125 2.03628641,2.125 1.98429612,2.21354167 C1.93230583,2.30208333 1.91497573,2.4171875 1.91497573,2.53229167 C1.91497573,2.65625 1.93230583,2.7625 1.97563107,2.85104167 C2.01895631,2.93958333 2.07961165,3.01041667 2.15759709,3.07239583 C2.23558252,3.12552083 2.33089806,3.16979167 2.43487864,3.19635417 C2.53885922,3.22291667 2.6601699,3.23177083 2.79881068,3.23177083 C2.93745146,3.23177083 3.07609223,3.22291667 3.21473301,3.19635417 C3.34470874,3.16979167 3.50934466,3.14322917 3.56133495,3.12552083 C3.60466019,3.11666667 3.65665049,3.09895833 3.65665049,3.09895833 C3.69131068,3.09010417 3.69131068,3.0546875 3.69131068,3.0546875 L3.69131068,1.7796875 C3.69131068,1.49635417 3.62199029,1.29270833 3.47468447,1.15989583 C3.32737864,1.0359375 3.11941748,0.965104167 2.85080097,0.965104167 C2.74682039,0.965104167 2.58218447,0.9828125 2.48686893,1.00052083 C2.48686893,1.00052083 2.19225728,1.0625 2.06228155,1.15989583 C2.06228155,1.15989583 2.03628641,1.17760417 2.0536165,1.21302083 L2.14893204,1.47864583 C2.15759709,1.5140625 2.19225728,1.50520833 2.19225728,1.50520833 C2.19225728,1.50520833 2.20092233,1.50520833 2.21825243,1.49635417 C2.47820388,1.3546875 2.81614078,1.3546875 2.81614078,1.3546875 C2.9634466,1.3546875 3.07609223,1.38125 3.15407767,1.44322917 C3.23206311,1.50520833 3.2667233,1.59375 3.2667233,1.7796875 L3.2667233,1.84166667 C3.12808252,1.8328125 3.02410194,1.81510417 3.02410194,1.81510417 Z M2.47820388,2.79791667 C2.42621359,2.75364583 2.41754854,2.74479167 2.40021845,2.71822917 C2.3742233,2.67395833 2.3568932,2.61197917 2.3568932,2.53229167 C2.3568932,2.40833333 2.40021845,2.31979167 2.47820388,2.2578125 C2.47820388,2.2578125 2.59951456,2.1515625 2.87679612,2.16041667 C3.07609223,2.16041667 3.2493932,2.19583333 3.2493932,2.19583333 L3.2493932,2.83333333 C3.2493932,2.83333333 3.07609223,2.86875 2.87679612,2.88645833 C2.59951456,2.8953125 2.47820388,2.79791667 2.47820388,2.79791667 Z" id="Shape" fill-rule="nonzero"></path>
                    <path d="M14.0460437,1.09791667 C14.0547087,1.0625 14.0373786,1.05364583 14.0287136,1.04479167 C14.0027184,1.0359375 13.8900728,1.009375 13.8034223,1.009375 C13.6301214,1.00052083 13.5348058,1.02708333 13.4481553,1.07135417 C13.3615049,1.10677083 13.2661893,1.17760417 13.214199,1.2484375 L13.214199,1.08020833 C13.214199,1.05364583 13.1968689,1.0359375 13.1708738,1.0359375 L12.8242718,1.0359375 C12.7982767,1.0359375 12.7809466,1.05364583 12.7809466,1.08020833 L12.7809466,3.1609375 C12.7809466,3.1875 12.7982767,3.20520833 12.8242718,3.20520833 L13.1795388,3.20520833 C13.205534,3.20520833 13.2228641,3.1875 13.2228641,3.1609375 L13.2228641,2.11614583 C13.2228641,1.97447917 13.2401942,1.8328125 13.2661893,1.753125 C13.2921845,1.66458333 13.3355097,1.59375 13.3875,1.54947917 C13.4394903,1.49635417 13.4914806,1.4609375 13.5521359,1.44322917 C13.6127913,1.42552083 13.6821117,1.41666667 13.7341019,1.41666667 C13.8034223,1.41666667 13.8814078,1.434375 13.8814078,1.434375 C13.9074029,1.434375 13.924733,1.41666667 13.9333981,1.39895833 C13.9680583,1.328125 14.0373786,1.13333333 14.0460437,1.09791667 Z" id="Shape"></path>
                    <path d="M10.6753398,0.1328125 C10.6320146,0.115104167 10.5886893,0.10625 10.536699,0.0973958333 C10.4847087,0.0885416667 10.4240534,0.0796875 10.354733,0.0796875 C10.1034466,0.0796875 9.91281553,0.150520833 9.77417476,0.2921875 C9.63553398,0.433854167 9.5488835,0.646354167 9.4968932,0.9296875 L9.47956311,1.02708333 L9.16762136,1.02708333 C9.16762136,1.02708333 9.13296117,1.02708333 9.12429612,1.07135417 L9.07230583,1.36354167 C9.07230583,1.39010417 9.08097087,1.4078125 9.11563107,1.4078125 L9.41890777,1.4078125 L9.11563107,3.15208333 C9.08963592,3.29375 9.06364078,3.40885417 9.03764563,3.49739583 C9.01165049,3.5859375 8.97699029,3.64791667 8.9423301,3.6921875 C8.9076699,3.73645833 8.87300971,3.771875 8.82101942,3.78958333 C8.77769417,3.80729167 8.71703883,3.81614583 8.6563835,3.81614583 C8.6217233,3.81614583 8.57839806,3.80729167 8.54373786,3.80729167 C8.50907767,3.7984375 8.49174757,3.78958333 8.46575243,3.78072917 C8.46575243,3.78072917 8.43109223,3.76302083 8.41376214,3.80729167 C8.40509709,3.83385417 8.3184466,4.0640625 8.30978155,4.090625 C8.3011165,4.1171875 8.30978155,4.14375 8.32711165,4.14375 C8.37043689,4.16145833 8.39643204,4.1703125 8.44842233,4.17916667 C8.52640777,4.196875 8.58706311,4.196875 8.64771845,4.196875 C8.77769417,4.196875 8.89033981,4.17916667 8.98565534,4.14375 C9.08097087,4.10833333 9.16762136,4.04635417 9.23694175,3.96666667 C9.31492718,3.878125 9.36691748,3.78072917 9.41024272,3.65677083 C9.45356796,3.5328125 9.4968932,3.3734375 9.5315534,3.1875 L9.84349515,1.4078125 L10.2940777,1.4078125 C10.2940777,1.4078125 10.3287379,1.4078125 10.3374029,1.36354167 L10.3893932,1.07135417 C10.3893932,1.04479167 10.3807282,1.02708333 10.346068,1.02708333 L9.91281553,1.02708333 C9.91281553,1.01822917 9.93881068,0.858854167 9.98213592,0.708333333 C9.99946602,0.646354167 10.0427913,0.593229167 10.0774515,0.5578125 C10.1121117,0.522395833 10.1467718,0.495833333 10.1900971,0.486979167 C10.2334223,0.469270833 10.2854126,0.469270833 10.3374029,0.469270833 C10.3807282,0.469270833 10.4153883,0.478125 10.4500485,0.478125 C10.4933738,0.486979167 10.5107039,0.495833333 10.5193689,0.495833333 C10.5626942,0.513541667 10.5713592,0.495833333 10.5800243,0.478125 L10.6840049,0.1859375 C10.71,0.150520833 10.6840049,0.141666667 10.6753398,0.1328125 Z" id="Shape"></path>
                    <path d="M4.56648058,3.15208333 C4.56648058,3.17864583 4.54915049,3.19635417 4.52315534,3.19635417 L4.1592233,3.19635417 C4.13322816,3.19635417 4.11589806,3.17864583 4.11589806,3.15208333 L4.11589806,0.177083333 C4.11589806,0.150520833 4.13322816,0.1328125 4.1592233,0.1328125 L4.52315534,0.1328125 C4.54915049,0.1328125 4.56648058,0.150520833 4.56648058,0.177083333 L4.56648058,3.15208333 Z" id="Shape"></path>
                </g>
            </g>
            <g id="trello" transform="translate(28.000000, 0.000000)" fill="url(#linearGradient-2)" fill-rule="nonzero">
                <path d="M16.5,15.833 C16.5,16.198 16.198,16.5 15.833,16.5 L1.167,16.5 C0.803,16.5 0.5,16.198 0.5,15.833 L0.5,1.167 C0.5,0.802 0.802,0.5 1.167,0.5 L15.834,0.5 C16.198,0.5 16.501,0.802 16.501,1.167 L16.501,15.833 L16.5,15.833 Z M7.833,2.5 C7.833,2.312 7.687,2.167 7.5,2.167 L2.5,2.167 C2.312,2.167 2.167,2.313 2.167,2.5 L2.167,13.167 C2.167,13.354 2.313,13.5 2.5,13.5 L7.5,13.5 C7.688,13.5 7.833,13.354 7.833,13.167 L7.833,2.5 Z M14.833,2.5 C14.833,2.312 14.687,2.167 14.5,2.167 L9.5,2.167 C9.312,2.167 9.167,2.313 9.167,2.5 L9.167,9.167 C9.167,9.354 9.312,9.5 9.5,9.5 L14.5,9.5 C14.688,9.5 14.833,9.354 14.833,9.167 L14.833,2.5 Z" id="Shape"></path>
            </g>
            <g id="skype" transform="translate(3.000000, 22.000000)" fill="url(#linearGradient-3)" fill-rule="nonzero">
                <path d="M16.199,9.943 C16.288,9.453 16.333,8.968 16.333,8.5 C16.333,3.712 12.064,-0.108 7.056,0.801 C6.3,0.276 5.421,1.11022302e-16 4.5,1.11022302e-16 C2.019,1.11022302e-16 2.66453526e-15,2.019 2.66453526e-15,4.5 C2.66453526e-15,5.421 0.276,6.3 0.801,7.057 C0.712,7.547 0.667,8.031 0.667,8.5 C0.667,13.288 4.937,17.108 9.944,16.199 C10.7,16.724 11.579,17 12.5,17 C14.981,17 17,14.981 17,12.5 C17,11.579 16.724,10.7 16.199,9.943 Z M12.5,16 C11.725,16 10.988,15.748 10.367,15.271 L10.185,15.131 L9.96,15.178 C9.461,15.281 8.97,15.333 8.499,15.333 C4.731,15.333 1.666,12.268 1.666,8.5 C1.666,8.029 1.718,7.538 1.822,7.039 L1.868,6.814 L1.728,6.632 C1.252,6.013 1,5.274 1,4.5 C1,2.57 2.57,1 4.5,1 C5.275,1 6.012,1.252 6.633,1.729 L6.815,1.869 L7.04,1.822 C7.538,1.72 8.029,1.667 8.5,1.667 C12.268,1.667 15.333,4.732 15.333,8.5 C15.333,8.971 15.281,9.462 15.177,9.961 L15.131,10.186 L15.271,10.368 C15.748,10.987 16,11.726 16,12.5 C16,14.43 14.43,16 12.5,16 Z M12.719,10.239 C12.719,12.354 10.677,13.333 8.719,13.333 C6.375,13.333 4.416,12.291 4.416,11.01 C4.416,10.438 4.739,9.917 5.469,9.917 C6.584,9.917 6.688,11.521 8.615,11.521 C9.531,11.521 10.125,11.116 10.125,10.584 C10.125,9.917 9.552,9.813 8.625,9.584 L7.104,9.209 C5.584,8.844 4.416,8.219 4.416,6.469 C4.416,4.355 6.51,3.573 8.312,3.573 C10.281,3.573 12.27,4.354 12.27,5.552 C12.27,6.156 11.864,6.688 11.187,6.688 C10.176,6.688 10.145,5.491 8.509,5.491 C7.593,5.491 7.009,5.74 7.009,6.292 C7.009,6.897 7.603,7.032 8.396,7.22 L9.478,7.47 C10.958,7.803 12.719,8.427 12.719,10.239 Z" id="Shape"></path>
            </g>
            <g id="social-twitter" transform="translate(25.000000, 22.000000)" fill="#595959" fill-rule="nonzero">
                <path d="M16.89,3.012 C17.698,2.516 18.233,1.839 18.495,0.978 C17.709,1.395 16.926,1.681 16.144,1.839 C15.441,1.083 14.551,0.699 13.484,0.699 C12.441,0.699 11.56,1.065 10.841,1.777 C10.126,2.494 9.765,3.365 9.765,4.382 C9.765,4.691 9.804,4.967 9.882,5.201 C6.806,5.096 4.26,3.82 2.254,1.364 C1.914,1.965 1.744,2.577 1.744,3.21 C1.744,4.511 2.293,5.542 3.389,6.299 C2.764,6.246 2.213,6.088 1.744,5.829 C1.744,6.758 2.017,7.534 2.564,8.217 C3.113,8.893 3.818,9.324 4.679,9.508 C4.367,9.588 4.038,9.626 3.7,9.626 C3.388,9.626 3.167,9.6 3.036,9.543 C3.266,10.3 3.7,10.914 4.327,11.384 C4.952,11.856 5.671,12.105 6.479,12.127 C5.147,13.172 3.624,13.689 1.901,13.689 C1.479,13.689 1.18,13.683 0.999,13.651 C2.696,14.753 4.585,15.3 6.675,15.3 C8.814,15.3 10.704,14.758 12.349,13.674 C13.994,12.596 15.208,11.266 15.988,9.7 C16.772,8.136 17.16,6.508 17.16,4.808 L17.16,4.34 C17.918,3.77 18.531,3.128 19,2.419 C18.32,2.712 17.617,2.911 16.89,3.012 Z" id="Shape"></path>
            </g>
        </g>
    </g>
</svg>