
<svg width="417px" height="296px" viewBox="0 0 417 296" version="1.1" xmlns="http://www.w3.org/2000/svg" xmlns:xlink="http://www.w3.org/1999/xlink">
    <!-- Generator: Sketch 48.1 (47250) - http://www.bohemiancoding.com/sketch -->
    <desc>Created with Sketch.</desc>
    <defs>
        <polygon id="path-1" points="172.892697 195.609562 183.706 222.540388 172.892697 249.49004 104.421456 249.49004 93.608153 222.540388 104.421456 195.609562"></polygon>
        <filter x="-2.4%" y="-2.2%" width="104.9%" height="108.2%" filterUnits="objectBoundingBox" id="filter-2">
            <feMorphology radius="0.2" operator="dilate" in="SourceAlpha" result="shadowSpreadOuter1"></feMorphology>
            <feOffset dx="0" dy="1" in="shadowSpreadOuter1" result="shadowOffsetOuter1"></feOffset>
            <feGaussianBlur stdDeviation="0.5" in="shadowOffsetOuter1" result="shadowBlurOuter1"></feGaussianBlur>
            <feComposite in="shadowBlurOuter1" in2="SourceAlpha" operator="out" result="shadowBlurOuter1"></feComposite>
            <feColorMatrix values="0 0 0 0 0   0 0 0 0 0   0 0 0 0 0  0 0 0 0.5 0" type="matrix" in="shadowBlurOuter1"></feColorMatrix>
        </filter>
        <polygon id="path-3" points="129.598926 0 140.412229 26.930826 129.598926 53.8804781 61.1276854 53.8804781 50.3143822 26.930826 61.1276854 0"></polygon>
        <filter x="-4.3%" y="-5.4%" width="108.7%" height="114.5%" filterUnits="objectBoundingBox" id="filter-4">
            <feMorphology radius="0.4" operator="dilate" in="SourceAlpha" result="shadowSpreadOuter1"></feMorphology>
            <feOffset dx="0" dy="1" in="shadowSpreadOuter1" result="shadowOffsetOuter1"></feOffset>
            <feGaussianBlur stdDeviation="1" in="shadowOffsetOuter1" result="shadowBlurOuter1"></feGaussianBlur>
            <feComposite in="shadowBlurOuter1" in2="SourceAlpha" operator="out" result="shadowBlurOuter1"></feComposite>
            <feColorMatrix values="0 0 0 0 0   0 0 0 0 0   0 0 0 0 0  0 0 0 0.5 0" type="matrix" in="shadowBlurOuter1"></feColorMatrix>
        </filter>
        <path d="M65.5257071,145.243028 L9.3608153,145.243028 C4.19130505,145.243028 0,140.522922 0,134.701195 L0,113.61753 C0,107.795803 4.19130505,103.075697 9.3608153,103.075697 L65.5257071,103.075697 C70.6952173,103.075697 74.8865224,107.795803 74.8865224,113.61753 L74.8865224,134.701195 C74.8865224,140.522922 70.6952173,145.243028 65.5257071,145.243028 Z" id="path-5"></path>
        <filter x="-5.2%" y="-6.9%" width="110.4%" height="118.5%" filterUnits="objectBoundingBox" id="filter-6">
            <feMorphology radius="0.4" operator="dilate" in="SourceAlpha" result="shadowSpreadOuter1"></feMorphology>
            <feOffset dx="0" dy="1" in="shadowSpreadOuter1" result="shadowOffsetOuter1"></feOffset>
            <feGaussianBlur stdDeviation="1" in="shadowOffsetOuter1" result="shadowBlurOuter1"></feGaussianBlur>
            <feComposite in="shadowBlurOuter1" in2="SourceAlpha" operator="out" result="shadowBlurOuter1"></feComposite>
            <feColorMatrix values="0 0 0 0 0   0 0 0 0 0   0 0 0 0 0  0 0 0 0.5 0" type="matrix" in="shadowBlurOuter1"></feColorMatrix>
        </filter>
        <path d="M172.004981,145.243028 L115.840089,145.243028 C110.670579,145.243028 106.479274,140.522922 106.479274,134.701195 L106.479274,113.61753 C106.479274,107.795803 110.670579,103.075697 115.840089,103.075697 L172.004981,103.075697 C177.174491,103.075697 181.365796,107.795803 181.365796,113.61753 L181.365796,134.701195 C181.365796,140.522922 177.174491,145.243028 172.004981,145.243028 Z" id="path-7"></path>
        <filter x="-5.2%" y="-6.9%" width="110.4%" height="118.5%" filterUnits="objectBoundingBox" id="filter-8">
            <feMorphology radius="0.4" operator="dilate" in="SourceAlpha" result="shadowSpreadOuter1"></feMorphology>
            <feOffset dx="0" dy="1" in="shadowSpreadOuter1" result="shadowOffsetOuter1"></feOffset>
            <feGaussianBlur stdDeviation="1" in="shadowOffsetOuter1" result="shadowBlurOuter1"></feGaussianBlur>
            <feComposite in="shadowBlurOuter1" in2="SourceAlpha" operator="out" result="shadowBlurOuter1"></feComposite>
            <feColorMatrix values="0 0 0 0 0   0 0 0 0 0   0 0 0 0 0  0 0 0 0.5 0" type="matrix" in="shadowBlurOuter1"></feColorMatrix>
        </filter>
        <path d="M113.725269,75.7428747 C113.479102,75.316973 113.193653,74.908506 112.813927,74.549852 L98.6514594,61.0804018 C98.2743523,60.7192571 97.8448691,60.447776 97.3970544,60.2136546 L96.815099,53.8804781 L92.7414108,53.8804781 L92.1594554,60.2136546 C91.7116407,60.447776 91.2821575,60.7192571 90.9050504,61.0804018 L76.7425826,74.549852 C76.3628567,74.908506 76.0747887,75.316973 75.8312404,75.7428747 L52.8774626,75.7428747 C45.6574323,75.7428747 39.783465,81.3294088 39.783465,88.1961385 L39.783465,104.247012 L43.8571532,104.247012 L45.0210641,88.1961385 C45.0210641,84.0765988 48.5459682,80.7241802 52.8774626,80.7241802 L75.8312404,80.7241802 C76.0747887,81.1500818 76.3628567,81.5585489 76.7425826,81.9172029 L90.9050504,95.3866531 C93.0446096,97.4215164 96.5119002,97.4215164 98.6514594,95.3866531 L112.813927,81.9172029 C113.193653,81.5585489 113.479102,81.1500818 113.725269,80.7241802 L136.679047,80.7241802 C141.010542,80.7241802 144.535446,84.0765988 144.535446,88.1961385 L145.699357,104.247012 L149.773045,104.247012 L149.773045,88.1961385 C149.773045,81.3294088 143.899077,75.7428747 136.679047,75.7428747 L113.725269,75.7428747 Z" id="path-9"></path>
        <filter x="-3.5%" y="-5.8%" width="107.1%" height="115.5%" filterUnits="objectBoundingBox" id="filter-10">
            <feMorphology radius="0.4" operator="dilate" in="SourceAlpha" result="shadowSpreadOuter1"></feMorphology>
            <feOffset dx="0" dy="1" in="shadowSpreadOuter1" result="shadowOffsetOuter1"></feOffset>
            <feGaussianBlur stdDeviation="1" in="shadowOffsetOuter1" result="shadowBlurOuter1"></feGaussianBlur>
            <feComposite in="shadowBlurOuter1" in2="SourceAlpha" operator="out" result="shadowBlurOuter1"></feComposite>
            <feColorMatrix values="0 0 0 0 0   0 0 0 0 0   0 0 0 0 0  0 0 0 0.5 0" type="matrix" in="shadowBlurOuter1"></feColorMatrix>
        </filter>
        <polygon id="path-11" points="172.892697 195.609562 183.706 222.540388 172.892697 249.49004 104.421456 249.49004 93.608153 222.540388 104.421456 195.609562"></polygon>
        <filter x="-2.4%" y="-2.2%" width="104.9%" height="108.2%" filterUnits="objectBoundingBox" id="filter-12">
            <feMorphology radius="0.2" operator="dilate" in="SourceAlpha" result="shadowSpreadOuter1"></feMorphology>
            <feOffset dx="0" dy="1" in="shadowSpreadOuter1" result="shadowOffsetOuter1"></feOffset>
            <feGaussianBlur stdDeviation="0.5" in="shadowOffsetOuter1" result="shadowBlurOuter1"></feGaussianBlur>
            <feComposite in="shadowBlurOuter1" in2="SourceAlpha" operator="out" result="shadowBlurOuter1"></feComposite>
            <feColorMatrix values="0 0 0 0 0   0 0 0 0 0   0 0 0 0 0  0 0 0 0.5 0" type="matrix" in="shadowBlurOuter1"></feColorMatrix>
        </filter>
        <path d="M113.725269,75.7428747 C113.479102,75.316973 113.193653,74.908506 112.813927,74.549852 L98.6514594,61.0804018 C98.2743523,60.7192571 97.8448691,60.447776 97.3970544,60.2136546 L96.815099,53.8804781 L92.7414108,53.8804781 L92.1594554,60.2136546 C91.7116407,60.447776 91.2821575,60.7192571 90.9050504,61.0804018 L76.7425826,74.549852 C76.3628567,74.908506 76.0747887,75.316973 75.8312404,75.7428747 L52.8774626,75.7428747 C45.6574323,75.7428747 39.783465,81.3294088 39.783465,88.1961385 L39.783465,104.247012 L43.8571532,104.247012 L45.0210641,88.1961385 C45.0210641,84.0765988 48.5459682,80.7241802 52.8774626,80.7241802 L75.8312404,80.7241802 C76.0747887,81.1500818 76.3628567,81.5585489 76.7425826,81.9172029 L90.9050504,95.3866531 C93.0446096,97.4215164 96.5119002,97.4215164 98.6514594,95.3866531 L112.813927,81.9172029 C113.193653,81.5585489 113.479102,81.1500818 113.725269,80.7241802 L136.679047,80.7241802 C141.010542,80.7241802 144.535446,84.0765988 144.535446,88.1961385 L145.699357,104.247012 L149.773045,104.247012 L149.773045,88.1961385 C149.773045,81.3294088 143.899077,75.7428747 136.679047,75.7428747 L113.725269,75.7428747 Z" id="path-13"></path>
        <filter x="-3.5%" y="-5.8%" width="107.1%" height="115.5%" filterUnits="objectBoundingBox" id="filter-14">
            <feMorphology radius="0.4" operator="dilate" in="SourceAlpha" result="shadowSpreadOuter1"></feMorphology>
            <feOffset dx="0" dy="1" in="shadowSpreadOuter1" result="shadowOffsetOuter1"></feOffset>
            <feGaussianBlur stdDeviation="1" in="shadowOffsetOuter1" result="shadowBlurOuter1"></feGaussianBlur>
            <feComposite in="shadowBlurOuter1" in2="SourceAlpha" operator="out" result="shadowBlurOuter1"></feComposite>
            <feColorMatrix values="0 0 0 0 0   0 0 0 0 0   0 0 0 0 0  0 0 0 0.5 0" type="matrix" in="shadowBlurOuter1"></feColorMatrix>
        </filter>
    </defs>
    <g id="Page-1" stroke="none" stroke-width="1" fill="none" fill-rule="evenodd">
        <g id="Desktop-HD" transform="translate(-848.000000, -1245.000000)">
            <g id="Group-2" transform="translate(851.000000, 1247.000000)">
                <g id="Group-4">
                    <g id="Stroke-2" stroke-linejoin="round" transform="translate(138.657077, 222.549801) rotate(-24.000000) translate(-138.657077, -222.549801) ">
                        <use fill="black" fill-opacity="1" filter="url(#filter-2)" xlink:href="#path-1"></use>
                        <use stroke="#000000" stroke-width="0.4" fill="#FFFFFF" fill-rule="evenodd" xlink:href="#path-1"></use>
                    </g>
                    <path d="M112.813927,173.768873 L98.6514594,187.238323 C98.2743523,187.599468 97.8448691,187.870949 97.3970544,188.10507 L96.815099,194.438247 L92.7414108,194.438247 L92.1594554,188.10507 C91.7116407,187.870949 91.2821575,187.599468 90.9050504,187.238323 L76.7425826,173.768873 C76.3628567,173.410219 76.0747887,173.001752 75.8312404,172.57585 L52.8774626,172.57585 C45.6574323,172.57585 39.783465,166.989316 39.783465,160.122587 L39.783465,144.071713 L43.8571532,144.071713 L45.0210641,160.122587 C45.0210641,164.242126 48.5459682,167.594545 52.8774626,167.594545 L75.8312404,167.594545 C76.0747887,167.168643 76.3628567,166.760176 76.7425826,166.401522 L90.9050504,152.932072 C93.0446096,150.897209 96.5119002,150.897209 98.6514594,152.932072 L112.813927,166.401522 C113.193653,166.760176 113.479102,167.168643 113.725269,167.594545 L136.679047,167.594545 C141.010542,167.594545 144.535446,164.242126 144.535446,160.122587 L145.699357,144.071713 L149.773045,144.071713 L149.773045,160.122587 C149.773045,166.989316 143.899077,172.57585 136.679047,172.57585 L113.725269,172.57585 C113.479102,173.001752 113.193653,173.410219 112.813927,173.768873 Z" id="Stroke-3" stroke="#000000" stroke-width="0.8"></path>
                    <g id="Group" transform="translate(93.608153, 227.235060)" stroke="#4A4A4A">
                        <path d="M0.1128645,34.4693709 C0.713781294,38.039148 4.6505567,46.3481675 12.4239547,54.1528317 L12.4239547,58.3799983 L40.3435505,58.3799983 L40.3435505,54.1757639 L40.3435505,54.1528317 L43.163237,49.4517333 C44.1725461,47.7776836 44.7040493,45.8590239 44.7040493,43.909788 L44.7040493,29.5618828 C44.6809371,28.3159006 43.2249465,27.0699184 41.2372216,26.6877153 C39.657889,26.3819528 38.1864133,26.702927 37.400599,27.4215453 C37.3774868,26.1755631 35.9291233,24.9295809 33.9415524,24.5397337 C32.5163011,24.2569034 31.1680903,24.4938694 30.3437557,25.0748181 C30.0972258,23.9282087 28.6565663,22.8427519 26.7535861,22.4681928 C25.112621,22.1471422 23.5795898,22.4529047 22.7628822,23.1638025 L22.7551782,23.1638025 C22.7551782,23.1638025 22.7551782,23.1638025 22.7551782,23.1561584 C22.7166579,22.7815994 20.605668,2.49425758 20.598041,2.46368133 C20.2050568,-1.1137399 14.3423431,-0.647452091 14.3499701,2.90703695 L14.334639,36.2733696 C14.334639,36.6708609 14.0418076,36.9995555 13.6489775,37.053064 L13.6335694,37.053064 C13.587345,37.060708 13.5488247,37.060708 13.5026004,37.060708 C12.3701804,37.0302082 9.82005898,36.9919879 7.33164713,33.4221343 C7.00037249,32.9482024 6.69991409,32.5201349 6.43027194,32.1302878 C4.07275209,28.7591798 -0.534276662,30.6244074 0.1128645,34.4693709 L0.1128645,34.4693709 Z" id="Shape" stroke-width="0.5" fill="#FFFFFF"></path>
                        <path d="M12.4393628,64.7398582 C12.4393628,65.5807051 13.1327284,66.2686707 13.9801751,66.2686707 L38.8257733,66.2686707 C39.6732201,66.2686707 40.3665856,65.5807051 40.3665856,64.7398582 L40.3665856,60.8336659 L12.4393628,60.8336659 L12.4393628,64.7398582 L12.4393628,64.7398582 Z" id="Shape" stroke-width="0.2" fill="#C0C0C0"></path>
                    </g>
                    <g id="Stroke-2" stroke-linejoin="round">
                        <use fill="black" fill-opacity="1" filter="url(#filter-4)" xlink:href="#path-3"></use>
                        <use stroke="#000000" stroke-width="0.8" fill="#FFFFFF" fill-rule="evenodd" xlink:href="#path-3"></use>
                    </g>
                    <g id="Stroke-5">
                        <use fill="black" fill-opacity="1" filter="url(#filter-6)" xlink:href="#path-5"></use>
                        <use stroke="#000000" stroke-width="0.8" fill="#FFFFFF" fill-rule="evenodd" xlink:href="#path-5"></use>
                    </g>
                    <g id="Stroke-5">
                        <use fill="black" fill-opacity="1" filter="url(#filter-8)" xlink:href="#path-7"></use>
                        <use stroke="#000000" stroke-width="0.8" fill="#FFFFFF" fill-rule="evenodd" xlink:href="#path-7"></use>
                    </g>
                    <g id="Stroke-3">
                        <use fill="black" fill-opacity="1" filter="url(#filter-10)" xlink:href="#path-9"></use>
                        <use stroke="#000000" stroke-width="0.8" fill="#D8D8D8" fill-rule="evenodd" xlink:href="#path-9"></use>
                    </g>
                    <g id="Stroke-2" stroke-linejoin="round" transform="translate(138.657077, 222.549801) rotate(-24.000000) translate(-138.657077, -222.549801) ">
                        <use fill="black" fill-opacity="1" filter="url(#filter-12)" xlink:href="#path-11"></use>
                        <use stroke="#000000" stroke-width="0.4" fill="#FFFFFF" fill-rule="evenodd" xlink:href="#path-11"></use>
                    </g>
                    <path d="M112.813927,173.768873 L98.6514594,187.238323 C98.2743523,187.599468 97.8448691,187.870949 97.3970544,188.10507 L96.815099,194.438247 L92.7414108,194.438247 L92.1594554,188.10507 C91.7116407,187.870949 91.2821575,187.599468 90.9050504,187.238323 L76.7425826,173.768873 C76.3628567,173.410219 76.0747887,173.001752 75.8312404,172.57585 L52.8774626,172.57585 C45.6574323,172.57585 39.783465,166.989316 39.783465,160.122587 L39.783465,144.071713 L43.8571532,144.071713 L45.0210641,160.122587 C45.0210641,164.242126 48.5459682,167.594545 52.8774626,167.594545 L75.8312404,167.594545 C76.0747887,167.168643 76.3628567,166.760176 76.7425826,166.401522 L90.9050504,152.932072 C93.0446096,150.897209 96.5119002,150.897209 98.6514594,152.932072 L112.813927,166.401522 C113.193653,166.760176 113.479102,167.168643 113.725269,167.594545 L136.679047,167.594545 C141.010542,167.594545 144.535446,164.242126 144.535446,160.122587 L145.699357,144.071713 L149.773045,144.071713 L149.773045,160.122587 C149.773045,166.989316 143.899077,172.57585 136.679047,172.57585 L113.725269,172.57585 C113.479102,173.001752 113.193653,173.410219 112.813927,173.768873 Z" id="Stroke-3" stroke="#000000" stroke-width="0.8"></path>
                    <g id="Group" transform="translate(93.608153, 227.235060)" stroke="#4A4A4A">
                        <path d="M0.1128645,34.4693709 C0.713781294,38.039148 4.6505567,46.3481675 12.4239547,54.1528317 L12.4239547,58.3799983 L40.3435505,58.3799983 L40.3435505,54.1757639 L40.3435505,54.1528317 L43.163237,49.4517333 C44.1725461,47.7776836 44.7040493,45.8590239 44.7040493,43.909788 L44.7040493,29.5618828 C44.6809371,28.3159006 43.2249465,27.0699184 41.2372216,26.6877153 C39.657889,26.3819528 38.1864133,26.702927 37.400599,27.4215453 C37.3774868,26.1755631 35.9291233,24.9295809 33.9415524,24.5397337 C32.5163011,24.2569034 31.1680903,24.4938694 30.3437557,25.0748181 C30.0972258,23.9282087 28.6565663,22.8427519 26.7535861,22.4681928 C25.112621,22.1471422 23.5795898,22.4529047 22.7628822,23.1638025 L22.7551782,23.1638025 C22.7551782,23.1638025 22.7551782,23.1638025 22.7551782,23.1561584 C22.7166579,22.7815994 20.605668,2.49425758 20.598041,2.46368133 C20.2050568,-1.1137399 14.3423431,-0.647452091 14.3499701,2.90703695 L14.334639,36.2733696 C14.334639,36.6708609 14.0418076,36.9995555 13.6489775,37.053064 L13.6335694,37.053064 C13.587345,37.060708 13.5488247,37.060708 13.5026004,37.060708 C12.3701804,37.0302082 9.82005898,36.9919879 7.33164713,33.4221343 C7.00037249,32.9482024 6.69991409,32.5201349 6.43027194,32.1302878 C4.07275209,28.7591798 -0.534276662,30.6244074 0.1128645,34.4693709 L0.1128645,34.4693709 Z" id="Shape" stroke-width="0.5" fill="#FFFFFF"></path>
                        <path d="M12.4393628,64.7398582 C12.4393628,65.5807051 13.1327284,66.2686707 13.9801751,66.2686707 L38.8257733,66.2686707 C39.6732201,66.2686707 40.3665856,65.5807051 40.3665856,64.7398582 L40.3665856,60.8336659 L12.4393628,60.8336659 L12.4393628,64.7398582 L12.4393628,64.7398582 Z" id="Shape" stroke-width="0.2" fill="#C0C0C0"></path>
                    </g>
                    <g id="Stroke-3">
                        <use fill="black" fill-opacity="1" filter="url(#filter-14)" xlink:href="#path-13"></use>
                        <use stroke="#000000" stroke-width="0.8" fill="#D8D8D8" fill-rule="evenodd" xlink:href="#path-13"></use>
                    </g>
                </g>
                <path d="M228,25 L308,25" id="Path-47" stroke="#979797"></path>
                <path d="M333,48 L413,48" id="Path-47" stroke="#979797"></path>
                <path d="M228,48 L270.535,48" id="Path-47" stroke="#979797"></path>
                <rect id="Rectangle-14" fill="#F2F2F2" x="317" y="16" width="66" height="16" rx="4"></rect>
                <path d="M326,24 L372.540638,24" id="Path-47" stroke="#D0021B"></path>
                <rect id="Rectangle-14" fill="#F2F2F2" x="278" y="39" width="43" height="16" rx="4"></rect>
                <path d="M283,47.5 L313.697017,47.5" id="Path-47" stroke="#D0021B"></path>
                <path d="M391,25 L414,25" id="Path-48" stroke="#979797"></path>
            </g>
        </g>
    </g>
</svg>